<svg width="27" height="33" viewBox="0 0 27 33" fill="none" xmlns="http://www.w3.org/2000/svg">
<path fill-rule="evenodd" clip-rule="evenodd" d="M13.3122 0.000407715C13.8317 -0.00341052 14.1983 0.0194989 14.6108 0.0729541C14.9279 0.114955 15.2869 0.176046 15.4129 0.206592C15.539 0.240956 15.8293 0.328776 16.0622 0.40514C16.2952 0.477687 16.6695 0.626598 16.9025 0.733508C17.1355 0.8366 17.5213 1.04278 17.7619 1.18788C18.0025 1.32915 18.289 1.50861 18.3921 1.58497C18.4991 1.66134 18.6709 1.79498 18.7741 1.87898C18.881 1.9668 19.0682 2.13098 19.1942 2.24553C19.3203 2.36389 19.5494 2.59681 19.706 2.76481C19.8588 2.93281 20.088 3.20772 20.2178 3.37572C20.3439 3.54373 20.5349 3.81864 20.638 3.98664C20.7449 4.15464 20.9283 4.49065 21.0505 4.7312C21.1689 4.97175 21.3484 5.38411 21.4477 5.64757C21.5623 5.96067 21.6692 6.35013 21.7533 6.77395C21.8258 7.12905 21.9022 7.64832 21.9251 7.91942C21.9442 8.19051 21.9633 8.93507 21.9633 10.7258H26.203L26.1915 17.7208C26.18 24.6815 26.18 24.7235 26.0998 25.0824C26.054 25.2809 25.9738 25.6207 25.9203 25.8346C25.8668 26.0522 25.7866 26.3195 25.7408 26.4264C25.6988 26.5371 25.6033 26.7738 25.5269 26.9533C25.4543 27.1328 25.313 27.4229 25.2175 27.6024C25.122 27.7819 24.9502 28.072 24.8318 28.2515C24.7172 28.431 24.4995 28.7288 24.3505 28.9197C24.2015 29.1106 23.8884 29.4466 23.6592 29.6719C23.43 29.8972 23.113 30.1797 22.9564 30.3057C22.7998 30.4279 22.5248 30.6226 22.3453 30.7372C22.1658 30.8555 21.8755 31.0274 21.696 31.1266C21.5165 31.2221 21.1918 31.3748 20.9703 31.4703C20.7487 31.5619 20.5196 31.6574 20.4546 31.6803C20.3897 31.7032 20.1529 31.7757 19.9199 31.8368C19.6869 31.8979 19.3623 31.9743 19.1942 32.0086C19.0262 32.0392 18.7015 32.085 18.4685 32.1079C18.1821 32.1385 16.4786 32.1461 13.0831 32.1385C8.17885 32.1232 8.11392 32.1194 7.69759 32.0392C7.46461 31.9934 7.07884 31.9056 6.83821 31.8406C6.59759 31.7757 6.18508 31.6383 5.92154 31.5314C5.65799 31.4245 5.27987 31.2488 5.08125 31.1419C4.88264 31.035 4.58854 30.8632 4.43194 30.7563C4.27534 30.6532 4.01562 30.4699 3.85902 30.3553C3.70242 30.237 3.38541 29.9621 3.15624 29.7406C2.93089 29.5192 2.61005 29.1717 2.44964 28.9693C2.28922 28.767 2.09824 28.5188 2.02567 28.4157C1.9531 28.3164 1.80414 28.0682 1.68956 27.8697C1.5788 27.6711 1.4031 27.3275 1.29997 27.106C1.20067 26.8846 1.04789 26.4913 0.96004 26.2278C0.876012 25.9644 0.772886 25.5978 0.730872 25.4069C0.692677 25.216 0.635385 24.8571 0.604829 24.6051C0.566634 24.2385 0.555176 22.8105 0.555176 10.7449L4.81389 10.7258V9.32071C4.81389 8.54943 4.83299 7.75524 4.85209 7.55669C4.875 7.35814 4.92466 7.04123 4.96285 6.85031C5.00486 6.6594 5.08889 6.31576 5.15764 6.08667C5.22639 5.85757 5.34862 5.50248 5.43265 5.30393C5.51667 5.10538 5.68091 4.76174 5.7955 4.54028C5.9139 4.31883 6.10487 3.99428 6.22328 3.81482C6.34168 3.63536 6.53647 3.36045 6.66252 3.2039C6.78856 3.04736 7.03683 2.76481 7.21634 2.57771C7.39586 2.39444 7.70905 2.10807 7.90767 1.94771C8.10628 1.78352 8.45767 1.5277 8.69066 1.37497C8.92365 1.22224 9.34379 0.985511 9.62643 0.848055C9.90907 0.710599 10.3292 0.531142 10.5622 0.454777C10.7952 0.374594 11.0778 0.279139 11.1924 0.244775C11.307 0.21041 11.6698 0.141682 11.9945 0.0920453C12.449 0.0233171 12.7546 0.000407715 13.3122 0.000407715ZM12.1091 4.5021C11.9525 4.54792 11.7004 4.6472 11.5553 4.71974C11.4101 4.79611 11.1733 4.92974 11.0282 5.02138C10.8869 5.11302 10.6157 5.33829 10.4247 5.52157C10.2337 5.70866 9.98164 6.00267 9.85942 6.18212C9.74101 6.36158 9.56914 6.67849 9.47747 6.8885C9.3858 7.0985 9.27504 7.42305 9.23302 7.61396C9.16809 7.91178 9.15663 8.14088 9.14518 9.35889L9.1299 10.764H4.85209L4.87118 24.1851C5.06598 24.8915 5.19966 25.2427 5.3066 25.4527C5.40973 25.6589 5.59688 25.9644 5.72293 26.1324C5.84515 26.3004 6.05904 26.5371 6.19272 26.6631C6.3264 26.7853 6.56703 26.9724 6.72363 27.0793C6.88023 27.1862 7.13995 27.3313 7.29655 27.4039C7.45315 27.4764 7.6785 27.568 7.79308 27.61C7.90767 27.6482 8.14829 27.7093 8.32781 27.736C8.59517 27.7819 9.47365 27.7933 13.3619 27.7933C16.4824 27.7933 18.1591 27.778 18.3425 27.7513C18.4953 27.7322 18.7321 27.6749 18.8696 27.6329C19.0071 27.5871 19.2553 27.4917 19.4234 27.4115C19.5914 27.3351 19.8664 27.1786 20.0345 27.0679C20.2026 26.9533 20.4814 26.7166 20.6533 26.5448C20.829 26.3691 21.0619 26.0866 21.1765 25.9109C21.2911 25.7391 21.463 25.4184 21.5585 25.1969C21.6501 24.9755 21.7609 24.6662 21.7953 24.5096C21.8602 24.2424 21.864 23.7918 21.8755 17.4917L21.8869 10.764H17.6473C17.6206 8.26306 17.6053 7.90415 17.5595 7.70942C17.5251 7.57196 17.4449 7.3085 17.3761 7.11759C17.3074 6.92668 17.1661 6.62886 17.0668 6.4494C16.9636 6.26994 16.8147 6.04849 16.7383 5.95303C16.6619 5.85757 16.5129 5.68957 16.406 5.57503C16.3029 5.4643 16.0852 5.27339 15.9286 5.15502C15.7681 5.03665 15.4588 4.85338 15.2411 4.74265C14.9966 4.62429 14.6834 4.50592 14.439 4.44101C14.1181 4.36083 13.9272 4.33792 13.4841 4.32646C13.1251 4.31883 12.8348 4.33028 12.6629 4.36465C12.5178 4.39137 12.2657 4.45628 12.1091 4.5021Z" fill="#7DBE53"/>
</svg>